<?xml version="1.0" encoding="UTF-8"?>
<mxfile host="app.diagrams.net" modified="2023-12-21T08:34:49.632Z" agent="Mozilla/5.0 (Windows NT 10.0; Win64; x64) AppleWebKit/537.36 (KHTML, like Gecko) Chrome/120.0.0.0 Safari/537.36 Edg/120.0.0.0" etag="VSvEo8RDBiKC9qpO5hlz" version="22.1.11" type="google">
  <diagram name="第 1 页" id="V2nOPr3HbMlNQZXbCR-e">
    <mxGraphModel dx="1042" dy="569" grid="1" gridSize="10" guides="1" tooltips="1" connect="1" arrows="1" fold="1" page="1" pageScale="1" pageWidth="827" pageHeight="1169" math="0" shadow="0">
      <root>
        <mxCell id="0" />
        <mxCell id="1" parent="0" />
        <mxCell id="7-VyK1XRfxAsDTaw5IFc-1" value="" style="ellipse;whiteSpace=wrap;html=1;aspect=fixed;fillColor=#f5f5f5;fontColor=#333333;strokeColor=#666666;" parent="1" vertex="1">
          <mxGeometry x="140" y="120" width="80" height="80" as="geometry" />
        </mxCell>
        <mxCell id="7-VyK1XRfxAsDTaw5IFc-2" value="" style="endArrow=classic;html=1;rounded=0;exitX=1;exitY=0.5;exitDx=0;exitDy=0;" parent="1" source="7-VyK1XRfxAsDTaw5IFc-1" edge="1">
          <mxGeometry width="50" height="50" relative="1" as="geometry">
            <mxPoint x="390" y="320" as="sourcePoint" />
            <mxPoint x="320" y="160" as="targetPoint" />
          </mxGeometry>
        </mxCell>
        <mxCell id="7-VyK1XRfxAsDTaw5IFc-4" value="輸入帳號" style="strokeWidth=2;html=1;shape=mxgraph.flowchart.start_1;whiteSpace=wrap;fontSize=15;" parent="1" vertex="1">
          <mxGeometry x="320" y="130" width="100" height="60" as="geometry" />
        </mxCell>
        <mxCell id="7-VyK1XRfxAsDTaw5IFc-5" value="" style="strokeWidth=2;html=1;shape=mxgraph.flowchart.decision;whiteSpace=wrap;" parent="1" vertex="1">
          <mxGeometry x="320" y="250" width="100" height="70" as="geometry" />
        </mxCell>
        <mxCell id="7-VyK1XRfxAsDTaw5IFc-6" value="" style="endArrow=classic;html=1;rounded=0;exitX=0.5;exitY=1;exitDx=0;exitDy=0;exitPerimeter=0;entryX=0.5;entryY=0;entryDx=0;entryDy=0;entryPerimeter=0;" parent="1" source="7-VyK1XRfxAsDTaw5IFc-4" target="7-VyK1XRfxAsDTaw5IFc-5" edge="1">
          <mxGeometry width="50" height="50" relative="1" as="geometry">
            <mxPoint x="390" y="380" as="sourcePoint" />
            <mxPoint x="440" y="330" as="targetPoint" />
          </mxGeometry>
        </mxCell>
        <mxCell id="7-VyK1XRfxAsDTaw5IFc-7" value="是否存在" style="text;strokeColor=none;fillColor=none;html=1;fontSize=15;fontStyle=1;verticalAlign=middle;align=center;" parent="1" vertex="1">
          <mxGeometry x="220" y="275" width="100" height="20" as="geometry" />
        </mxCell>
        <mxCell id="7-VyK1XRfxAsDTaw5IFc-13" value="" style="endArrow=none;html=1;rounded=0;exitX=1;exitY=0.5;exitDx=0;exitDy=0;exitPerimeter=0;" parent="1" source="7-VyK1XRfxAsDTaw5IFc-5" edge="1">
          <mxGeometry width="50" height="50" relative="1" as="geometry">
            <mxPoint x="390" y="380" as="sourcePoint" />
            <mxPoint x="560" y="285" as="targetPoint" />
          </mxGeometry>
        </mxCell>
        <mxCell id="7-VyK1XRfxAsDTaw5IFc-14" value="" style="endArrow=classic;html=1;rounded=0;entryX=1;entryY=0.5;entryDx=0;entryDy=0;entryPerimeter=0;" parent="1" target="7-VyK1XRfxAsDTaw5IFc-4" edge="1">
          <mxGeometry width="50" height="50" relative="1" as="geometry">
            <mxPoint x="560" y="160" as="sourcePoint" />
            <mxPoint x="440" y="330" as="targetPoint" />
          </mxGeometry>
        </mxCell>
        <mxCell id="7-VyK1XRfxAsDTaw5IFc-16" value="" style="endArrow=none;html=1;rounded=0;" parent="1" edge="1">
          <mxGeometry width="50" height="50" relative="1" as="geometry">
            <mxPoint x="560" y="290" as="sourcePoint" />
            <mxPoint x="560" y="160" as="targetPoint" />
          </mxGeometry>
        </mxCell>
        <mxCell id="7-VyK1XRfxAsDTaw5IFc-20" value="否" style="text;strokeColor=none;fillColor=none;html=1;fontSize=24;fontStyle=1;verticalAlign=middle;align=center;" parent="1" vertex="1">
          <mxGeometry x="390" y="240" width="100" height="40" as="geometry" />
        </mxCell>
        <mxCell id="7-VyK1XRfxAsDTaw5IFc-22" value="輸入密碼" style="ellipse;whiteSpace=wrap;html=1;fontSize=20;" parent="1" vertex="1">
          <mxGeometry x="310" y="380" width="120" height="80" as="geometry" />
        </mxCell>
        <mxCell id="7-VyK1XRfxAsDTaw5IFc-23" value="" style="endArrow=classic;html=1;rounded=0;exitX=0.5;exitY=1;exitDx=0;exitDy=0;exitPerimeter=0;entryX=0.5;entryY=0;entryDx=0;entryDy=0;" parent="1" source="7-VyK1XRfxAsDTaw5IFc-5" target="7-VyK1XRfxAsDTaw5IFc-22" edge="1">
          <mxGeometry width="50" height="50" relative="1" as="geometry">
            <mxPoint x="390" y="380" as="sourcePoint" />
            <mxPoint x="440" y="330" as="targetPoint" />
          </mxGeometry>
        </mxCell>
        <mxCell id="7-VyK1XRfxAsDTaw5IFc-31" value="" style="edgeStyle=orthogonalEdgeStyle;rounded=0;orthogonalLoop=1;jettySize=auto;html=1;" parent="1" source="7-VyK1XRfxAsDTaw5IFc-24" target="7-VyK1XRfxAsDTaw5IFc-29" edge="1">
          <mxGeometry relative="1" as="geometry" />
        </mxCell>
        <mxCell id="7-VyK1XRfxAsDTaw5IFc-24" value="" style="strokeWidth=2;html=1;shape=mxgraph.flowchart.decision;whiteSpace=wrap;" parent="1" vertex="1">
          <mxGeometry x="320" y="514.5" width="100" height="70" as="geometry" />
        </mxCell>
        <mxCell id="7-VyK1XRfxAsDTaw5IFc-25" value="" style="endArrow=classic;html=1;rounded=0;exitX=0.5;exitY=1;exitDx=0;exitDy=0;entryX=0.5;entryY=0;entryDx=0;entryDy=0;entryPerimeter=0;" parent="1" source="7-VyK1XRfxAsDTaw5IFc-22" target="7-VyK1XRfxAsDTaw5IFc-24" edge="1">
          <mxGeometry width="50" height="50" relative="1" as="geometry">
            <mxPoint x="390" y="440" as="sourcePoint" />
            <mxPoint x="440" y="390" as="targetPoint" />
          </mxGeometry>
        </mxCell>
        <mxCell id="7-VyK1XRfxAsDTaw5IFc-26" value="" style="endArrow=none;html=1;rounded=0;exitX=1;exitY=0.5;exitDx=0;exitDy=0;exitPerimeter=0;" parent="1" edge="1">
          <mxGeometry width="50" height="50" relative="1" as="geometry">
            <mxPoint x="414" y="549" as="sourcePoint" />
            <mxPoint x="560" y="549.5" as="targetPoint" />
            <Array as="points">
              <mxPoint x="484" y="549" />
              <mxPoint x="514" y="549" />
            </Array>
          </mxGeometry>
        </mxCell>
        <mxCell id="7-VyK1XRfxAsDTaw5IFc-27" value="" style="endArrow=none;html=1;rounded=0;" parent="1" edge="1">
          <mxGeometry width="50" height="50" relative="1" as="geometry">
            <mxPoint x="560" y="550" as="sourcePoint" />
            <mxPoint x="560" y="430" as="targetPoint" />
            <Array as="points">
              <mxPoint x="560" y="500" />
            </Array>
          </mxGeometry>
        </mxCell>
        <mxCell id="7-VyK1XRfxAsDTaw5IFc-28" value="" style="endArrow=classic;html=1;rounded=0;entryX=1.013;entryY=0.665;entryDx=0;entryDy=0;entryPerimeter=0;" parent="1" target="7-VyK1XRfxAsDTaw5IFc-22" edge="1">
          <mxGeometry width="50" height="50" relative="1" as="geometry">
            <mxPoint x="560" y="433" as="sourcePoint" />
            <mxPoint x="440" y="390" as="targetPoint" />
            <Array as="points">
              <mxPoint x="500" y="433" />
            </Array>
          </mxGeometry>
        </mxCell>
        <mxCell id="7-VyK1XRfxAsDTaw5IFc-29" value="進入系統" style="ellipse;whiteSpace=wrap;html=1;fontSize=20;" parent="1" vertex="1">
          <mxGeometry x="310" y="640" width="120" height="80" as="geometry" />
        </mxCell>
        <mxCell id="7-VyK1XRfxAsDTaw5IFc-30" value="" style="endArrow=classic;html=1;rounded=0;entryX=0.5;entryY=0;entryDx=0;entryDy=0;" parent="1" target="7-VyK1XRfxAsDTaw5IFc-29" edge="1">
          <mxGeometry width="50" height="50" relative="1" as="geometry">
            <mxPoint x="370" y="590" as="sourcePoint" />
            <mxPoint x="440" y="570" as="targetPoint" />
          </mxGeometry>
        </mxCell>
        <mxCell id="7-VyK1XRfxAsDTaw5IFc-32" value="車輛訊息管理" style="ellipse;whiteSpace=wrap;html=1;fontSize=18;" parent="1" vertex="1">
          <mxGeometry x="510" y="640" width="120" height="80" as="geometry" />
        </mxCell>
        <mxCell id="7-VyK1XRfxAsDTaw5IFc-33" value="退出系統" style="ellipse;whiteSpace=wrap;html=1;fontSize=20;" parent="1" vertex="1">
          <mxGeometry x="700" y="640" width="120" height="80" as="geometry" />
        </mxCell>
        <mxCell id="7-VyK1XRfxAsDTaw5IFc-34" value="" style="ellipse;html=1;shape=endState;fillColor=#000000;strokeColor=#ff0000;" parent="1" vertex="1">
          <mxGeometry x="745" y="580" width="30" height="30" as="geometry" />
        </mxCell>
        <mxCell id="7-VyK1XRfxAsDTaw5IFc-35" value="" style="endArrow=classic;html=1;rounded=0;exitX=1;exitY=0.5;exitDx=0;exitDy=0;entryX=0;entryY=0.5;entryDx=0;entryDy=0;" parent="1" source="7-VyK1XRfxAsDTaw5IFc-29" target="7-VyK1XRfxAsDTaw5IFc-32" edge="1">
          <mxGeometry width="50" height="50" relative="1" as="geometry">
            <mxPoint x="390" y="620" as="sourcePoint" />
            <mxPoint x="440" y="570" as="targetPoint" />
          </mxGeometry>
        </mxCell>
        <mxCell id="7-VyK1XRfxAsDTaw5IFc-36" value="" style="endArrow=classic;html=1;rounded=0;exitX=1.007;exitY=0.415;exitDx=0;exitDy=0;exitPerimeter=0;entryX=0.03;entryY=0.415;entryDx=0;entryDy=0;entryPerimeter=0;" parent="1" edge="1">
          <mxGeometry width="50" height="50" relative="1" as="geometry">
            <mxPoint x="629.9999999999999" y="679.5" as="sourcePoint" />
            <mxPoint x="702.7599999999999" y="679.5" as="targetPoint" />
          </mxGeometry>
        </mxCell>
        <mxCell id="7-VyK1XRfxAsDTaw5IFc-37" value="" style="endArrow=classic;html=1;rounded=0;exitX=0.5;exitY=0;exitDx=0;exitDy=0;entryX=0.5;entryY=1;entryDx=0;entryDy=0;" parent="1" source="7-VyK1XRfxAsDTaw5IFc-33" target="7-VyK1XRfxAsDTaw5IFc-34" edge="1">
          <mxGeometry width="50" height="50" relative="1" as="geometry">
            <mxPoint x="390" y="620" as="sourcePoint" />
            <mxPoint x="440" y="570" as="targetPoint" />
          </mxGeometry>
        </mxCell>
      </root>
    </mxGraphModel>
  </diagram>
</mxfile>
